REM DIRINDEX 1\2,1\3,1\4,1\5,1\6
REM DIRNAME folder01,folder02,folder03,folder04,folder05,folder06
TITLE ""
FILE "CD1-19.mp3" MP3
  TRACK 01 AUDIO
    TITLE "6:cjc091_0351"
    INDEX 01 00:00:00
  TRACK 02 AUDIO
    TITLE "0:"
    INDEX 01 00:01:50
  TRACK 03 AUDIO
    TITLE "2:cjc091_0352"
    INDEX 01 00:03:02
  TRACK 04 AUDIO
    TITLE "0:"
    INDEX 01 00:04:35
  TRACK 05 AUDIO
    TITLE "3:cjc091_0353"
    INDEX 01 00:04:54
  TRACK 06 AUDIO
    TITLE "0:"
    INDEX 01 00:06:65
  TRACK 07 AUDIO
    TITLE "4:cjc091_0354"
    INDEX 01 00:07:09
  TRACK 08 AUDIO
    TITLE "0:"
    INDEX 01 00:10:02
  TRACK 09 AUDIO
    TITLE "2:cjc091_0355"
    INDEX 01 00:11:21
  TRACK 10 AUDIO
    TITLE "0:"
    INDEX 01 00:12:42
  TRACK 11 AUDIO
    TITLE "3:cjc091_0356"
    INDEX 01 00:12:61
  TRACK 12 AUDIO
    TITLE "0:"
    INDEX 01 00:15:21
  TRACK 13 AUDIO
    TITLE "4:cjc091_0357"
    INDEX 01 00:15:46
  TRACK 14 AUDIO
    TITLE "0:"
    INDEX 01 00:19:50
  TRACK 15 AUDIO
    TITLE "2:cjc091_0358"
    INDEX 01 00:20:63
  TRACK 16 AUDIO
    TITLE "0:"
    INDEX 01 00:22:56
  TRACK 17 AUDIO
    TITLE "3:cjc091_0359"
    INDEX 01 00:23:04
  TRACK 18 AUDIO
    TITLE "0:"
    INDEX 01 00:24:69
  TRACK 19 AUDIO
    TITLE "4:cjc091_0360"
    INDEX 01 00:25:15
  TRACK 20 AUDIO
    TITLE "0:"
    INDEX 01 00:29:29
  TRACK 21 AUDIO
    TITLE "2:cjc091_0361"
    INDEX 01 00:30:42
  TRACK 22 AUDIO
    TITLE "0:"
    INDEX 01 00:32:17
  TRACK 23 AUDIO
    TITLE "3:cjc091_0362"
    INDEX 01 00:32:35
  TRACK 24 AUDIO
    TITLE "0:"
    INDEX 01 00:34:38
  TRACK 25 AUDIO
    TITLE "4:cjc091_0363"
    INDEX 01 00:34:65
  TRACK 26 AUDIO
    TITLE "0:"
    INDEX 01 00:37:50
  TRACK 27 AUDIO
    TITLE "2:cjc091_0364"
    INDEX 01 00:38:61
  TRACK 28 AUDIO
    TITLE "0:"
    INDEX 01 00:40:72
  TRACK 29 AUDIO
    TITLE "3:cjc091_0365"
    INDEX 01 00:41:14
  TRACK 30 AUDIO
    TITLE "0:"
    INDEX 01 00:43:03
  TRACK 31 AUDIO
    TITLE "4:cjc091_0366"
    INDEX 01 00:43:31
  TRACK 32 AUDIO
    TITLE "0:"
    INDEX 01 00:45:26
  TRACK 33 AUDIO
    TITLE "2:cjc091_0367"
    INDEX 01 00:46:45
  TRACK 34 AUDIO
    TITLE "0:"
    INDEX 01 00:48:02
  TRACK 35 AUDIO
    TITLE "3:cjc091_0368"
    INDEX 01 00:48:16
  TRACK 36 AUDIO
    TITLE "0:"
    INDEX 01 00:49:18
  TRACK 37 AUDIO
    TITLE "4:cjc091_0369"
    INDEX 01 00:49:41
  TRACK 38 AUDIO
    TITLE "0:"
    INDEX 01 00:51:63
  TRACK 39 AUDIO
    TITLE "2:cjc091_0370"
    INDEX 01 00:53:11
  TRACK 40 AUDIO
    TITLE "0:"
    INDEX 01 00:54:38
  TRACK 41 AUDIO
    TITLE "3:cjc091_0371"
    INDEX 01 00:54:64
  TRACK 42 AUDIO
    TITLE "0:"
    INDEX 01 00:56:47
  TRACK 43 AUDIO
    TITLE "4:cjc091_0372"
    INDEX 01 00:56:72
  TRACK 44 AUDIO
    TITLE "0:"
    INDEX 01 01:00:21
  TRACK 45 AUDIO
    TITLE "2:cjc091_0373"
    INDEX 01 01:01:40
  TRACK 46 AUDIO
    TITLE "0:"
    INDEX 01 01:04:09
  TRACK 47 AUDIO
    TITLE "3:cjc091_0374"
    INDEX 01 01:04:27
  TRACK 48 AUDIO
    TITLE "0:"
    INDEX 01 01:07:00
  TRACK 49 AUDIO
    TITLE "4:cjc091_0375"
    INDEX 01 01:07:23
  TRACK 50 AUDIO
    TITLE "0:"
    INDEX 01 01:12:42
  TRACK 51 AUDIO
    TITLE "2:cjc091_0376"
    INDEX 01 01:13:53
  TRACK 52 AUDIO
    TITLE "0:"
    INDEX 01 01:15:03
  TRACK 53 AUDIO
    TITLE "3:cjc091_0377"
    INDEX 01 01:15:13
  TRACK 54 AUDIO
    TITLE "0:"
    INDEX 01 01:16:69
  TRACK 55 AUDIO
    TITLE "4:cjc091_0378"
    INDEX 01 01:17:16
  TRACK 56 AUDIO
    TITLE "0:"
    INDEX 01 01:19:68
  TRACK 57 AUDIO
    TITLE "2:cjc091_0379"
    INDEX 01 01:21:10
  TRACK 58 AUDIO
    TITLE "0:"
    INDEX 01 01:22:68
  TRACK 59 AUDIO
    TITLE "3:cjc091_0380"
    INDEX 01 01:23:07
  TRACK 60 AUDIO
    TITLE "0:"
    INDEX 01 01:24:45
  TRACK 61 AUDIO
    TITLE "4:cjc091_0381"
    INDEX 01 01:24:69
  TRACK 62 AUDIO
    TITLE "0:"
    INDEX 01 01:27:44
  TRACK 63 AUDIO
    TITLE "2:cjc091_0382"
    INDEX 01 01:28:61
  TRACK 64 AUDIO
    TITLE "0:"
    INDEX 01 01:31:02
  TRACK 65 AUDIO
    TITLE "3:cjc091_0383"
    INDEX 01 01:31:24
  TRACK 66 AUDIO
    TITLE "0:"
    INDEX 01 01:33:29
  TRACK 67 AUDIO
    TITLE "4:cjc091_0384"
    INDEX 01 01:33:52
  TRACK 68 AUDIO
    TITLE "0:"
    INDEX 01 01:38:12
  TRACK 69 AUDIO
    TITLE "2:cjc091_0385"
    INDEX 01 01:39:31
  TRACK 70 AUDIO
    TITLE "0:"
    INDEX 01 01:40:50
  TRACK 71 AUDIO
    TITLE "3:cjc091_0386"
    INDEX 01 01:40:60
  TRACK 72 AUDIO
    TITLE "0:"
    INDEX 01 01:41:65
  TRACK 73 AUDIO
    TITLE "4:cjc091_0387"
    INDEX 01 01:42:14
  TRACK 74 AUDIO
    TITLE "0:"
    INDEX 01 01:44:62
  TRACK 75 AUDIO
    TITLE "2:cjc091_0388"
    INDEX 01 01:46:02
  TRACK 76 AUDIO
    TITLE "0:"
    INDEX 01 01:47:29
  TRACK 77 AUDIO
    TITLE "3:cjc091_0389"
    INDEX 01 01:47:56
  TRACK 78 AUDIO
    TITLE "0:"
    INDEX 01 01:49:57
  TRACK 79 AUDIO
    TITLE "4:cjc091_0390"
    INDEX 01 01:50:06
  TRACK 80 AUDIO
    TITLE "0:"
    INDEX 01 01:52:53
  TRACK 81 AUDIO
    TITLE "2:cjc091_0391"
    INDEX 01 01:53:70
  TRACK 82 AUDIO
    TITLE "0:"
    INDEX 01 01:55:05
  TRACK 83 AUDIO
    TITLE "3:cjc091_0392"
    INDEX 01 01:55:26
  TRACK 84 AUDIO
    TITLE "0:"
    INDEX 01 01:56:08
  TRACK 85 AUDIO
    TITLE "4:cjc091_0393"
    INDEX 01 01:56:36
  TRACK 86 AUDIO
    TITLE "0:"
    INDEX 01 02:00:24
  TRACK 87 AUDIO
    TITLE "2:cjc091_0394"
    INDEX 01 02:01:29
  TRACK 88 AUDIO
    TITLE "0:"
    INDEX 01 02:02:38
  TRACK 89 AUDIO
    TITLE "3:cjc091_0395"
    INDEX 01 02:02:58
  TRACK 90 AUDIO
    TITLE "0:"
    INDEX 01 02:04:53
  TRACK 91 AUDIO
    TITLE "4:cjc091_0396"
    INDEX 01 02:05:05
  TRACK 92 AUDIO
    TITLE "0:"
    INDEX 01 02:07:08
